:SAMPLES-PER-SECOND 30
:FULLY-SPECIFIED
:DEGREES
275
root  -0.683705 38.8231 36.8953 -6.2502 -9.58625 5.71401
RightUpLeg  -23.4097 -6.8829 -3.30138
RightLeg  66.3709 8.93036 -20.5309
RightFoot  5.18279 0.131304 -0.979558
RightToes  5.82077e-011 -3.18055e-015 -2.98177e-016
Spine  4.50838 2.0181 -4.40721
Spine1  8.57692 1.79041 -0.651941
HEad  -12.5044 4.57583 -0.917177
LeftShoulder1  -3.88251e-019 9.70628e-020 -3.87848e-018
LeftArm  -19.8669 40.5674 -72.9666
LeftForeArm  -2.84527 -18.3927 -3.46387
LeftHand  -0.949585 -3.41882 13.2809
RightShoulder  8.22057 10.9239 38.0771
RightArm  -1.22768 -41.5579 18.0789
RightForeArm  9.71945 2.59687 -4.53811
RightHand  -0.599822 -1.2207 -16.1275
LeftUpLeg  -9.97607 -2.4819 -14.4435
LeftLeg  21.4302 8.37063 10.3338
LeftFoot  -8.49245 -0.123271 2.49898
LeftToes  1.39127e-010 -3.60802e-011 -7.31315e-011
276
root  -0.801234 38.9553 38.0682 -5.53759 -7.41252 4.98028
RightUpLeg  -26.5432 -7.78233 -1.36948
RightLeg  63.0463 8.81687 -17.4478
RightFoot  5.83832 0.212047 -1.45234
RightToes  5.82077e-011 -3.18055e-015 -2.98177e-016
Spine  4.3042 1.24 -5.93924
Spine1  7.98625 0.378493 1.78264
HEad  -11.8491 4.57904 -1.43184
LeftShoulder1  -3.88251e-019 9.70628e-020 -3.87848e-018
LeftArm  -11.1327 35.9721 -73.0083
LeftForeArm  -10.7552 -23.0643 -0.599461
LeftHand  -1.1505 -4.40667 14.3983
RightShoulder  8.01778 10.8503 37.2549
RightArm  1.89181 -47.1253 11.0194
RightForeArm  10.8282 1.50476 -4.75778
RightHand  -0.393349 -2.36629 -14.2697
LeftUpLeg  -8.1929 -4.6419 -14.0991
LeftLeg  20.9404 8.36123 10.0103
LeftFoot  -9.71452 -0.0853629 2.01065
LeftToes  1.39127e-010 -3.60802e-011 -7.31315e-011
277
root  -0.941149 39.061 39.2527 -5.06338 -5.48564 4.49731
RightUpLeg  -28.4675 -8.60582 0.143925
RightLeg  57.5787 8.60755 -14.0301
RightFoot  4.11391 0.236567 -1.67903
RightToes  5.82077e-011 -3.18055e-015 -2.98177e-016
Spine  4.03004 0.538273 -7.63819
Spine1  7.844 -0.899148 4.15527
HEad  -11.6945 4.72989 -1.7687
LeftShoulder1  -3.88251e-019 9.70628e-020 -3.87848e-018
LeftArm  -3.02954 31.8377 -72.7157
LeftForeArm  -19.4965 -27.3615 3.65206
LeftHand  -1.22338 -5.06849 14.3036
RightShoulder  7.92935 10.8249 36.8769
RightArm  8.03182 -51.6635 1.85707
RightForeArm  11.8824 2.39978 -4.53598
RightHand  -0.26539 -2.88341 -11.6072
LeftUpLeg  -6.12429 -6.31659 -13.9209
LeftLeg  20.1979 8.23291 9.61427
LeftFoot  -11.1433 -0.0585461 1.66337
LeftToes  1.39127e-010 -3.60802e-011 -7.31315e-011
278
root  -1.09608 39.0863 40.4499 -4.71221 -4.05689 4.42577
RightUpLeg  -29.2709 -9.24296 1.08658
RightLeg  49.7218 8.12346 -11.1063
RightFoot  2.66379 0.0418456 -0.451926
RightToes  5.82077e-011 -3.18055e-015 -2.98177e-016
Spine  3.6342 -0.071137 -9.51685
Spine1  7.97586 -1.96519 6.16026
HEad  -11.9307 5.19782 -2.00344
LeftShoulder1  -3.88251e-019 9.70628e-020 -3.87848e-018
LeftArm  -1.14688 28.2209 -71.7442
LeftForeArm  -21.8057 -31.2357 5.91828
LeftHand  -1.23519 -5.60749 13.7257
RightShoulder  7.85789 10.8025 36.574
RightArm  15.1102 -54.9205 -7.56347
RightForeArm  13.8818 3.29619 -4.18848
RightHand  -0.329659 -1.89769 -10.4182
LeftUpLeg  -3.95755 -7.22134 -14.0925
LeftLeg  19.4266 7.9966 9.29832
LeftFoot  -12.7547 -0.0382993 1.34229
LeftToes  1.39127e-010 -3.60802e-011 -7.31315e-011
279
root  -1.24381 39.1061 41.6546 -4.38451 -3.13598 4.64902
RightUpLeg  -28.7435 -9.74469 1.68486
RightLeg  39.1721 7.80971 -8.16689
RightFoot  4.60774 -0.0219006 0.00147142
RightToes  5.82077e-011 -3.18055e-015 -2.98177e-016
Spine  3.0734 -0.684288 -11.2089
Spine1  8.2754 -2.88085 7.78506
HEad  -12.3141 6.05516 -2.1742
LeftShoulder1  -3.88251e-019 9.70628e-020 -3.87848e-018
LeftArm  -2.00582 25.502 -70.2719
LeftForeArm  -21.0153 -35.0256 6.87695
LeftHand  -1.26806 -6.1054 13.4698
RightShoulder  7.73695 10.7572 36.0753
RightArm  21.3495 -57.2371 -15.742
RightForeArm  16.7707 3.23054 -4.03167
RightHand  -0.495932 -0.416177 -11.2267
LeftUpLeg  -1.46295 -7.33296 -14.4139
LeftLeg  17.9465 7.61144 8.59892
LeftFoot  -13.7536 -0.0300348 1.18831
LeftToes  1.39127e-010 -3.60802e-011 -7.31315e-011
280
root  -1.37321 39.1564 42.8584 -4.15201 -2.60145 4.75787
RightUpLeg  -26.6839 -11.1064 2.68001
RightLeg  26.441 9.43721 -4.77139
RightFoot  7.5364 -0.016607 -0.125624
RightToes  5.82077e-011 -3.18055e-015 -2.98177e-016
Spine  2.4378 -1.33677 -12.0319
Spine1  8.91423 -3.70591 8.81782
HEad  -12.7927 7.07989 -2.28616
LeftShoulder1  -3.88251e-019 9.70628e-020 -3.87848e-018
LeftArm  -2.84 23.9039 -68.589
LeftForeArm  -20.5334 -38.68 8.02631
LeftHand  -1.35288 -6.58383 13.7714
RightShoulder  7.64103 10.7269 35.6646
RightArm  25.9225 -58.812 -22.1563
RightForeArm  19.2075 2.43385 -4.22341
RightHand  -0.600592 0.138574 -12.3454
LeftUpLeg  1.39562 -6.92086 -14.4241
LeftLeg  15.8394 7.0689 7.46778
LeftFoot  -14.4155 -0.0232952 1.32273
LeftToes  1.39127e-010 -3.60802e-011 -7.31315e-011
281
root  -1.51025 39.128 44.0938 -4.06451 -2.23868 4.5144
RightUpLeg  -23.4464 -11.1294 3.08639
RightLeg  13.8808 9.72407 -1.3074
RightFoot  7.54034 -0.353687 1.77566
RightToes  5.82077e-011 -3.18055e-015 -2.98177e-016
Spine  1.84651 -1.9236 -11.9353
Spine1  9.76107 -4.39334 9.27289
HEad  -13.232 7.86766 -2.43226
LeftShoulder1  -3.88251e-019 9.70628e-020 -3.87848e-018
LeftArm  -3.81029 23.2804 -67.2024
LeftForeArm  -20.2461 -41.9291 9.15419
LeftHand  -1.51054 -7.1377 14.6481
RightShoulder  7.62161 10.7353 35.549
RightArm  28.7577 -59.8439 -26.809
RightForeArm  19.9926 1.48245 -4.70923
RightHand  -0.536546 -0.301137 -11.8928
LeftUpLeg  4.09496 -6.33857 -13.9863
LeftLeg  14.494 6.33942 6.66739
LeftFoot  -15.8571 -0.0128223 1.27403
LeftToes  1.39127e-010 -3.60802e-011 -7.31315e-011
